<?xml version="1.0" standalone="no"?>
<!DOCTYPE svg PUBLIC "-//W3C//DTD SVG 20010904//EN"
 "http://www.w3.org/TR/2001/REC-SVG-20010904/DTD/svg10.dtd">
<svg version="1.0" xmlns="http://www.w3.org/2000/svg"
 width="3rem" height="3rem" viewBox="0 0 400.000000 400.000000"
 preserveAspectRatio="xMidYMid meet">

<g transform="translate(0.000000,400.000000) scale(0.100000,-0.100000)"
 fill="#00DF5E" stroke="none">
<path d="M1230 3187 c-43 -13 -371 -332 -403 -392 -22 -40 -22 -43 -25 -774
-2 -648 -1 -741 13 -789 15 -50 31 -70 173 -214 90 -92 178 -172 207 -189 l50
-29 755 0 c715 0 757 1 795 19 25 12 107 87 216 197 171 173 177 181 189 234
8 40 10 253 8 780 -3 721 -3 725 -25 765 -11 22 -99 117 -195 211 -138 136
-181 173 -214 182 -55 16 -1492 15 -1544 -1z m1468 -251 c15 -8 77 -65 139
-128 86 -88 113 -121 118 -148 3 -19 5 -331 3 -693 l-3 -658 -131 -129 -131
-130 -688 0 -688 0 -131 130 -131 129 -3 668 c-1 367 0 679 3 693 7 27 202
231 250 261 29 18 62 19 698 19 557 0 672 -2 695 -14z"/>
<path d="M1551 2505 c-70 -20 -108 -44 -161 -101 -61 -66 -84 -124 -85 -211 0
-68 2 -75 31 -104 77 -77 214 -22 214 86 0 41 23 71 65 85 30 10 40 9 68 -7
17 -11 35 -30 38 -44 26 -96 35 -114 69 -137 52 -35 113 -26 157 22 29 31 33
43 33 90 0 89 -33 161 -104 232 -91 90 -208 122 -325 89z"/>
<path d="M2356 2380 c-173 -114 -206 -147 -206 -205 0 -41 32 -90 71 -111 58
-29 93 -16 270 105 198 135 225 172 184 251 -24 45 -62 70 -111 70 -38 0 -62
-13 -208 -110z"/>
<path d="M1382 1713 c-60 -29 -84 -120 -47 -177 38 -57 20 -56 685 -56 l610 0
36 33 c29 26 37 42 40 77 6 54 -9 86 -55 117 l-34 23 -601 0 c-535 0 -605 -2
-634 -17z"/>
</g>
</svg>